<svg width="100px" height="17px" viewBox="0 0 100 17" version="1.1" xmlns="http://www.w3.org/2000/svg"><title>22seven-white-om-on-dark copy</title><desc>Created with Sketch.</desc><defs></defs><g id="Page-1" stroke="none" stroke-width="1" fill="none" fill-rule="evenodd"><g id="22seven-Logo" transform="translate(-2594.000000, -1084.000000)" fill="#FFFFFF"><g id="22seven-white-om-on-dark-copy" transform="translate(2594.000000, 1084.000000)"><g id="Group-4"><path d="M13.8720238,3.59155357 C14.9508929,1.73582143 16.5666667,0.228892857 19.039881,0.065875 C19.3702381,0.044625 19.7032738,0.0500892857 20.0357143,0.0813571429 C22.1440476,0.280196429 23.9077381,1.63594643 24.3809524,3.64255357 C24.5467262,4.25030357 24.5958333,4.91967857 24.4925595,5.61030357 C24.2791667,6.84158929 23.6345238,7.97117857 22.4752976,9.25407143 C21.9053571,9.99721429 21.16875,10.6681071 20.4979167,11.3144107 L17.9708333,13.79125 L23.8449405,13.79125 C25.5732143,13.79125 25.5732143,16.4274643 23.8449405,16.4274643 L14.7583333,16.4274643 C13.2982143,16.4274643 12.8077381,15.1904107 13.858631,14.1603929 L18.7104167,9.40494643 C19.2916667,8.84485714 20.008631,8.23225 20.4797619,7.57228571 C21.4821429,6.47153571 21.8354167,5.73264286 21.9339286,5.18408929 C21.9770833,4.87778571 21.9446429,4.56875 21.8702381,4.30160714 C21.7005952,3.55907143 20.9895833,2.81896429 19.796131,2.70633929 C19.5988095,2.68751786 19.402381,2.68417857 19.2059524,2.696625 C17.871131,2.78466071 16.9145833,3.53933929 16.1041667,4.93303571 C15.225,6.44573214 12.9922619,5.10425 13.8720238,3.59155357" id="Fill-1"></path><path d="M2.89196429,4.93303571 C3.70208333,3.53964286 4.65863095,2.78466071 5.99345238,2.69692857 C6.18988095,2.68417857 6.3860119,2.68782143 6.58333333,2.70633929 C7.77708333,2.81896429 8.48809524,3.559375 8.65744048,4.30191071 C8.73244048,4.56905357 8.76458333,4.87839286 8.72142857,5.18408929 C8.62261905,5.73294643 8.26934524,6.47183929 7.26696429,7.57228571 C6.79583333,8.23225 6.07886905,8.84485714 5.49761905,9.40525 L0.645833333,14.1603929 C-0.405059524,15.1904107 0.0860119048,16.4274643 1.54583333,16.4274643 L10.6321429,16.4274643 C12.3610119,16.4274643 12.3610119,13.79125 10.6321429,13.79125 L4.75833333,13.79125 L7.28541667,11.3144107 C7.95595238,10.6681071 8.69285714,9.99721429 9.2625,9.254375 C10.4217262,7.97117857 11.0666667,6.84158929 11.2803571,5.61060714 C11.383631,4.919375 11.333631,4.25 11.1681548,3.64285714 C10.6949405,1.63594643 8.93125,0.2805 6.82321429,0.0816607143 C6.49077381,0.0500892857 6.15803571,0.044625 5.82738095,0.0661785714 C3.35416667,0.228892857 1.73839286,1.736125 0.65952381,3.59155357 C-0.219940476,5.10455357 2.0125,6.44603571 2.89196429,4.93303571" id="Fill-3"></path></g><path d="M51.8651786,7.0465 L42.4949405,7.0465 C42.9511905,4.44276786 44.889881,2.72 47.2979167,2.72 C49.8047619,2.72 51.4252976,4.61246429 51.8651786,7.0465 M54.5946429,8.25775 L54.5946429,8.09139286 C54.516369,4.26669643 52.1535714,0.0880357143 47.2979167,0.0880357143 C43.0166667,0.0880357143 39.9702381,3.54328571 39.7919643,7.82910714 C39.7877976,7.92746429 39.7818452,8.18246429 39.7794643,8.40832143 C39.7782738,8.52610714 39.7782738,8.71007143 39.7782738,8.71007143 C39.8761905,13.5656964 43.3925595,16.7774821 47.5815476,16.7774821 C49.9077381,16.7774821 51.8032738,15.8172857 53.1824405,14.46275 C54.4291667,13.2384464 52.6083333,11.3526607 51.3616071,12.5769643 C50.4074405,13.5140893 49.1452381,14.1452143 47.5815476,14.1452143 C45.1059524,14.1452143 42.9431548,12.5025893 42.4782738,9.67876786 L53.2895833,9.67876786 C54.1818452,9.67876786 54.6166667,8.986625 54.59375,8.31239286 L54.5946429,8.25775" id="Fill-5"></path><g id="Group-13" transform="translate(26.488095, 0.000000)"><path d="M55.1571429,7.0465 L45.7869048,7.0465 C46.2428571,4.44276786 48.1818452,2.72 50.589881,2.72 C53.0967262,2.72 54.7172619,4.61246429 55.1571429,7.0465 M57.8866071,8.25775 L57.8866071,8.09139286 C57.8083333,4.26669643 55.4455357,0.0880357143 50.589881,0.0880357143 C46.308631,0.0880357143 43.2622024,3.54328571 43.0839286,7.82910714 C43.0797619,7.92746429 43.075,8.18246429 43.0723214,8.40832143 C43.071131,8.52610714 43.0699405,8.71007143 43.0699405,8.71007143 C43.1681548,13.5656964 46.6845238,16.7774821 50.8735119,16.7774821 C53.1997024,16.7774821 55.0952381,15.8172857 56.4744048,14.46275 C57.721131,13.2384464 55.9002976,11.3526607 54.6535714,12.5769643 C53.6994048,13.5140893 52.4372024,14.1452143 50.8735119,14.1452143 C48.3979167,14.1452143 46.235119,12.5025893 45.7702381,9.67876786 L56.5815476,9.67876786 C57.4738095,9.67876786 57.908631,8.986625 57.8857143,8.31239286 L57.8866071,8.25775" id="Fill-6"></path><path d="M62.1455357,1.39491071 L62.1455357,2.07946429 C63.3083333,0.87125 64.8026786,0.0910714286 66.5104167,0.0880357143 C70.8029762,0.0880357143 73.35,3.16108929 73.35,7.29026786 L73.35,15.4278036 C73.35,17.1824464 70.739881,17.1824464 70.739881,15.4278036 L70.739881,7.29026786 C70.739881,4.41817857 69.1764881,2.72030357 66.5125,2.72030357 C63.9877976,2.72455357 62.1886905,4.53110714 62.1449405,7.27235714 L62.1449405,7.358875 L62.1443452,15.4281071 C62.1440476,17.18275 59.5342262,17.1824464 59.5342262,15.4278036 L59.5354167,1.39460714 C59.5357143,-0.360035714 62.1455357,-0.359732143 62.1455357,1.39491071" id="Fill-8"></path><path d="M9.06666667,4.22783929 C8.23065476,3.17778571 7.01577381,2.73578571 5.75892857,2.73578571 C3.53005952,2.73578571 2.71488095,3.87357143 2.71488095,4.71294643 C2.71488095,6.17646429 5.37827381,6.72441071 6.37053571,7.01098214 C8.87202381,7.70282143 11.9181548,8.68942857 11.9181548,11.9245893 C11.9181548,15.0571429 8.96607143,16.7613929 6.08184524,16.7613929 C4.1639881,16.7613929 2.16815476,16.0431429 0.750892857,14.5580714 C-0.455654762,13.2936964 1.425,11.468625 2.63154762,12.733 C3.49166667,13.6343036 4.77410714,14.129125 6.08184524,14.129125 C8.30416667,14.129125 9.30803571,12.9257679 9.30803571,11.9245893 C9.30803571,10.3663571 6.74613095,9.84391071 5.65952381,9.543375 C3.21934524,8.83908929 0.104761905,7.91319643 0.104761905,4.71294643 C0.104761905,1.81808929 2.76845238,0.103517857 5.75892857,0.103517857 C7.61636905,0.103517857 9.66220238,0.771982143 11.1017857,2.58005357 C12.191369,3.94825 10.1559524,5.59603571 9.06666667,4.22783929" id="Fill-9"></path><path d="M42.9369048,1.94923214 L36.9922619,15.7368393 C36.94375,15.9657321 36.8300595,16.1663929 36.6755952,16.3288036 C36.4130952,16.6478571 36.0535714,16.7796071 35.6970238,16.7677679 C35.3401786,16.7796071 34.9806548,16.6478571 34.7181548,16.3288036 C34.5636905,16.1666964 34.4497024,15.9657321 34.4011905,15.7368393 L28.4547619,1.94923214 C27.7607143,0.340303571 30.1541667,-0.70975 30.8482143,0.899482143 L35.6967262,12.1410357 L40.5434524,0.899785714 C41.2372024,-0.709446429 43.6306548,0.34 42.9369048,1.94923214" id="Fill-10"></path></g></g></g></g></svg>