<svg width="230" height="65" viewBox="0 0 230 65" fill="none" xmlns="http://www.w3.org/2000/svg">
<path d="M99.3239 38.419C98.5162 39.2455 97.577 39.8982 96.5064 40.3772C95.4358 40.8468 94.2759 41.0816 93.0268 41.0816C92.191 41.0816 91.3786 40.9735 90.5897 40.7575C89.8102 40.5321 89.0777 40.2175 88.3921 39.8137C87.7065 39.4005 87.082 38.9121 86.5185 38.3486C85.955 37.7851 85.4666 37.1606 85.0534 36.475C84.6496 35.78 84.3349 35.0428 84.1096 34.2633C83.8935 33.4744 83.7855 32.6573 83.7855 31.8121C83.7855 30.9668 83.8935 30.1545 84.1096 29.375C84.3349 28.5861 84.6496 27.8488 85.0534 27.1633C85.4666 26.4777 85.955 25.8531 86.5185 25.2896C87.082 24.7262 87.7065 24.2425 88.3921 23.8386C89.0777 23.4348 89.8102 23.1249 90.5897 22.9089C91.3692 22.6835 92.1816 22.5708 93.0268 22.5708C94.2759 22.5708 95.4358 22.8103 96.5064 23.2892C97.577 23.7588 98.5162 24.4068 99.3239 25.2333V23.5146C99.3239 23.1014 99.5305 22.8948 99.9437 22.8948H101.395C101.836 22.8948 102.057 23.1014 102.057 23.5146V40.18C102.057 40.3678 101.996 40.5181 101.874 40.6308C101.752 40.7435 101.606 40.7998 101.437 40.7998H99.9719C99.7747 40.7998 99.615 40.7388 99.4929 40.6167C99.3802 40.4946 99.3239 40.349 99.3239 40.18V38.419ZM99.4647 31.8121C99.4647 30.9293 99.2957 30.0887 98.9576 29.2904C98.6195 28.4828 98.1593 27.7784 97.577 27.1773C96.9948 26.5763 96.3092 26.0973 95.5203 25.7404C94.7408 25.3836 93.9096 25.2051 93.0268 25.2051C92.144 25.2051 91.3129 25.3836 90.5334 25.7404C89.7633 26.0973 89.0871 26.5763 88.5048 27.1773C87.9319 27.7784 87.4764 28.4828 87.1383 29.2904C86.8096 30.0887 86.6453 30.9293 86.6453 31.8121C86.6453 32.6855 86.8096 33.526 87.1383 34.3337C87.4764 35.1414 87.9319 35.8551 88.5048 36.475C89.0871 37.0854 89.7633 37.5738 90.5334 37.9401C91.3129 38.3063 92.144 38.4895 93.0268 38.4895C93.9096 38.4895 94.7408 38.3063 95.5203 37.9401C96.3092 37.5738 96.9948 37.0854 97.577 36.475C98.1593 35.8551 98.6195 35.1414 98.9576 34.3337C99.2957 33.526 99.4647 32.6855 99.4647 31.8121ZM123.661 38.7149C123.389 39.0436 123.102 39.3394 122.802 39.6024C122.511 39.856 122.177 40.072 121.802 40.2504C121.435 40.4288 121.017 40.565 120.548 40.6589C120.078 40.7528 119.534 40.7998 118.914 40.7998C117.759 40.7998 116.74 40.6026 115.857 40.2081C114.974 39.8043 114.232 39.2596 113.631 38.574C113.039 37.879 112.589 37.0667 112.279 36.1369C111.978 35.2071 111.828 34.2116 111.828 33.1504V23.5851C111.828 23.2658 111.908 23.0263 112.067 22.8666C112.236 22.707 112.448 22.6271 112.701 22.6271H113.744C114.091 22.6271 114.312 22.6976 114.406 22.8384C114.509 22.9793 114.561 23.2141 114.561 23.5428V33.1504C114.561 33.7139 114.636 34.2915 114.786 34.8831C114.946 35.4654 115.199 35.996 115.547 36.475C115.904 36.954 116.373 37.3437 116.956 37.6442C117.538 37.9448 118.252 38.095 119.097 38.095C119.632 38.095 120.168 38.0011 120.703 37.8133C121.248 37.6161 121.736 37.3296 122.168 36.954C122.609 36.5783 122.966 36.1181 123.239 35.5734C123.52 35.0193 123.661 34.3807 123.661 33.6575V23.247C123.661 22.8338 123.868 22.6271 124.281 22.6271H125.732C126.173 22.6271 126.394 22.8338 126.394 23.247V39.8982C126.394 40.086 126.333 40.2363 126.211 40.349C126.089 40.4617 125.943 40.5181 125.774 40.5181H124.309C124.112 40.5181 123.952 40.457 123.83 40.3349C123.718 40.2128 123.661 40.0673 123.661 39.8982V38.7149ZM138.84 24.7966C138.953 24.5806 139.112 24.3458 139.319 24.0922C139.535 23.8386 139.793 23.6039 140.094 23.3879C140.394 23.1718 140.737 22.9934 141.122 22.8525C141.507 22.7023 141.93 22.6271 142.39 22.6271C142.897 22.6271 143.353 22.6506 143.756 22.6976C144.17 22.7351 144.559 22.8103 144.926 22.923C145.292 23.0263 145.644 23.1718 145.982 23.3597C146.33 23.5381 146.691 23.7682 147.067 24.05C147.18 24.1345 147.302 24.2425 147.433 24.374C147.574 24.5054 147.645 24.6604 147.645 24.8388C147.645 24.9422 147.621 25.0361 147.574 25.1206L146.743 26.4025C146.611 26.5622 146.48 26.642 146.348 26.642C146.273 26.642 146.203 26.6186 146.137 26.5716C146.071 26.5152 145.992 26.4542 145.898 26.3885C145.315 25.994 144.747 25.7076 144.193 25.5291C143.648 25.3413 143.066 25.2474 142.446 25.2474C141.977 25.2474 141.526 25.3366 141.094 25.515C140.662 25.6935 140.277 25.9517 139.939 26.2898C139.61 26.6185 139.342 27.0271 139.136 27.5154C138.939 27.9944 138.84 28.5391 138.84 29.1496V40.18C138.84 40.5932 138.633 40.7998 138.22 40.7998H136.755C136.323 40.7998 136.107 40.5932 136.107 40.18V23.5287C136.107 23.3409 136.168 23.1906 136.29 23.0779C136.412 22.9652 136.558 22.9089 136.727 22.9089H138.192C138.389 22.9089 138.544 22.9699 138.657 23.092C138.779 23.2141 138.84 23.3597 138.84 23.5287V24.7966ZM155.295 31.8825C155.295 30.6147 155.539 29.4219 156.027 28.3043C156.525 27.1773 157.192 26.1912 158.028 25.346C158.873 24.5008 159.855 23.834 160.972 23.3456C162.09 22.8572 163.278 22.6131 164.536 22.6131C165.372 22.6131 166.18 22.7257 166.959 22.9511C167.748 23.1672 168.485 23.4818 169.171 23.895C169.857 24.2988 170.481 24.7825 171.045 25.346C171.608 25.9095 172.092 26.5387 172.496 27.2337C172.909 27.9193 173.223 28.6565 173.439 29.4454C173.665 30.2249 173.778 31.0373 173.778 31.8825C173.778 32.7278 173.665 33.5448 173.439 34.3337C173.223 35.1132 172.909 35.8458 172.496 36.5313C172.092 37.2169 171.608 37.8415 171.045 38.405C170.481 38.9685 169.857 39.4521 169.171 39.856C168.485 40.2598 167.748 40.5744 166.959 40.7998C166.18 41.0158 165.372 41.1238 164.536 41.1238C163.7 41.1238 162.888 41.0158 162.099 40.7998C161.32 40.5744 160.587 40.2598 159.901 39.856C159.216 39.4521 158.591 38.9685 158.028 38.405C157.464 37.8415 156.981 37.2169 156.577 36.5313C156.173 35.8458 155.858 35.1132 155.633 34.3337C155.408 33.5448 155.295 32.7278 155.295 31.8825ZM158.098 31.8825C158.098 32.7747 158.267 33.62 158.605 34.4182C158.944 35.2165 159.404 35.9162 159.986 36.5173C160.568 37.1183 161.249 37.5973 162.029 37.9542C162.808 38.311 163.644 38.4895 164.536 38.4895C165.419 38.4895 166.245 38.311 167.016 37.9542C167.795 37.5973 168.471 37.1183 169.044 36.5173C169.626 35.9162 170.082 35.2165 170.411 34.4182C170.749 33.62 170.918 32.7747 170.918 31.8825C170.918 31.0091 170.749 30.1686 170.411 29.3609C170.082 28.5532 169.626 27.8441 169.044 27.2337C168.471 26.6139 167.795 26.1208 167.016 25.7545C166.245 25.3883 165.419 25.2051 164.536 25.2051C163.644 25.2051 162.808 25.3883 162.029 25.7545C161.249 26.1208 160.568 26.6139 159.986 27.2337C159.404 27.8441 158.944 28.5532 158.605 29.3609C158.267 30.1686 158.098 31.0091 158.098 31.8825ZM185.861 24.7966C185.974 24.5806 186.133 24.3458 186.34 24.0922C186.556 23.8386 186.814 23.6039 187.115 23.3879C187.415 23.1718 187.758 22.9934 188.143 22.8525C188.528 22.7023 188.951 22.6271 189.411 22.6271C189.918 22.6271 190.373 22.6506 190.777 22.6976C191.191 22.7351 191.58 22.8103 191.947 22.923C192.313 23.0263 192.665 23.1718 193.003 23.3597C193.351 23.5381 193.712 23.7682 194.088 24.05C194.201 24.1345 194.323 24.2425 194.454 24.374C194.595 24.5054 194.665 24.6604 194.665 24.8388C194.665 24.9422 194.642 25.0361 194.595 25.1206L193.764 26.4025C193.632 26.5622 193.501 26.642 193.369 26.642C193.294 26.642 193.224 26.6186 193.158 26.5716C193.092 26.5152 193.012 26.4542 192.919 26.3885C192.336 25.994 191.768 25.7076 191.214 25.5291C190.669 25.3413 190.087 25.2474 189.467 25.2474C188.998 25.2474 188.547 25.3366 188.115 25.515C187.683 25.6935 187.298 25.9517 186.96 26.2898C186.631 26.6185 186.363 27.0271 186.157 27.5154C185.959 27.9944 185.861 28.5391 185.861 29.1496V40.18C185.861 40.5932 185.654 40.7998 185.241 40.7998H183.776C183.344 40.7998 183.128 40.5932 183.128 40.18V23.5287C183.128 23.3409 183.189 23.1906 183.311 23.0779C183.433 22.9652 183.579 22.9089 183.748 22.9089H185.213C185.41 22.9089 185.565 22.9699 185.678 23.092C185.8 23.2141 185.861 23.3597 185.861 23.5287V24.7966ZM218.211 38.419C217.403 39.2455 216.464 39.8982 215.393 40.3772C214.322 40.8468 213.163 41.0816 211.913 41.0816C211.078 41.0816 210.265 40.9735 209.476 40.7575C208.697 40.5321 207.964 40.2175 207.279 39.8137C206.593 39.4005 205.969 38.9121 205.405 38.3486C204.842 37.7851 204.353 37.1606 203.94 36.475C203.536 35.78 203.222 35.0428 202.996 34.2633C202.78 33.4744 202.672 32.6573 202.672 31.8121C202.672 30.9668 202.78 30.1545 202.996 29.375C203.222 28.5861 203.536 27.8488 203.94 27.1633C204.353 26.4777 204.842 25.8531 205.405 25.2896C205.969 24.7262 206.593 24.2425 207.279 23.8386C207.964 23.4348 208.697 23.1249 209.476 22.9089C210.256 22.6835 211.068 22.5708 211.913 22.5708C213.163 22.5708 214.322 22.8103 215.393 23.2892C216.464 23.7588 217.403 24.4068 218.211 25.2333V23.5146C218.211 23.1014 218.417 22.8948 218.83 22.8948H220.281C220.723 22.8948 220.943 23.1014 220.943 23.5146V40.18C220.943 40.3678 220.882 40.5181 220.76 40.6308C220.638 40.7435 220.493 40.7998 220.324 40.7998H218.859C218.661 40.7998 218.502 40.7388 218.38 40.6167C218.267 40.4946 218.211 40.349 218.211 40.18V38.419ZM218.351 31.8121C218.351 30.9293 218.182 30.0887 217.844 29.2904C217.506 28.4828 217.046 27.7784 216.464 27.1773C215.881 26.5763 215.196 26.0973 214.407 25.7404C213.627 25.3836 212.796 25.2051 211.913 25.2051C211.031 25.2051 210.2 25.3836 209.42 25.7404C208.65 26.0973 207.974 26.5763 207.391 27.1773C206.819 27.7784 206.363 28.4828 206.025 29.2904C205.696 30.0887 205.532 30.9293 205.532 31.8121C205.532 32.6855 205.696 33.526 206.025 34.3337C206.363 35.1414 206.819 35.8551 207.391 36.475C207.974 37.0854 208.65 37.5738 209.42 37.9401C210.2 38.3063 211.031 38.4895 211.913 38.4895C212.796 38.4895 213.627 38.3063 214.407 37.9401C215.196 37.5738 215.881 37.0854 216.464 36.475C217.046 35.8551 217.506 35.1414 217.844 34.3337C218.182 33.526 218.351 32.6855 218.351 31.8121Z" fill="white"/>
<rect x="3" y="3" width="59.2243" height="59.2243" rx="0.215463" stroke="white" stroke-width="2.87497"/>
<path fill-rule="evenodd" clip-rule="evenodd" d="M41.3136 52.4494C41.3136 52.4494 34.8893 46.4716 32.4455 44.211C28.8092 40.8471 26.3893 38.5742 25.5242 36.623C23.2961 31.5981 25.7405 24.9157 32.6618 24.9157C39.5832 24.9157 41.9624 31.6366 39.1506 36.623C38.0876 38.5081 35.8114 40.8542 32.6618 43.9942C30.2573 46.3914 24.0101 52.0158 24.0101 52.0158C24.0101 52.0158 17.0253 45.9351 15.1421 42.6934C13.2589 39.4518 11.365 32.424 14.2769 25.3493C17.1741 18.3105 22.9287 12.7749 32.6618 12.7749C46.9372 12.7749 51.9119 24.9157 52.3445 30.5526C52.7771 36.1894 51.8572 38.016 49.749 42.043C47.6408 46.07 41.3136 52.4494 41.3136 52.4494Z" stroke="white" stroke-width="2.87497" stroke-linejoin="round"/>
</svg>
