<svg xmlns="http://www.w3.org/2000/svg" width="250" height="100" viewBox="0 0 250 100"><defs><style>.cls-1{fill:none;}.cls-2{fill:#ffffff;}</style></defs><g id="Layer_2" data-name="Layer 2"><g id="Layer_1-2" data-name="Layer 1"><rect class="cls-1" width="250" height="100"/><path class="cls-2" d="M11.5,52.07,30.65,41l-2-3.45-19.14,11Z"/><path class="cls-2" d="M11.5,42.87l11.18-6.46-2-3.45L9.5,39.42Z"/><path class="cls-2" d="M19.47,56.68l11.19-6.46-2-3.45L17.47,53.23Z"/><polygon class="cls-2" points="36.02 35.61 36.02 56.33 40.16 53.94 40.16 33.23 22.22 22.87 18.09 25.26 36.02 35.61"/><polygon class="cls-2" points="4.13 54.03 4.13 33.31 0 35.7 0 56.41 17.94 66.77 22.07 64.38 4.13 54.03"/><path class="cls-2" d="M62.11,33.23H76.37c6.08,0,10.2,3.48,10.2,9.1a7.19,7.19,0,0,1-3.82,6.55A8.13,8.13,0,0,1,88.61,57c0,5.16-3.67,9.25-10.78,9.25H62.11Zm4,14.51H76.25c3.65,0,6.2-2.1,6.2-5.38s-2.36-5.55-6.28-5.55h-10Zm12,3.38h-12V62.68h12c3.67,0,6.35-2,6.35-5.62C84.5,53.63,82.31,51.12,78.15,51.12Zm57.65,1V66.28H132V53c0-4.55-2.39-6.94-6.62-6.94a6.89,6.89,0,0,0-7.23,7V66.28h-3.87V42.92h3.9v3.5a9,9,0,0,1,7.81-4C132.1,42.43,135.8,46.06,135.8,52.07Zm15,.92,8-12.14h-4.29l-6.73,10.36h-5v-18H138.9V66.28h3.87V54.54h4.74L156,66.28h4.53Zm21.32-16v29.3h-4V37H157V33.23h26.11V37Zm46.17,5.45a16,16,0,0,1,7,1.56l-.42,3.48a15.4,15.4,0,0,0-6.59-1.41c-5.48,0-9.22,3.43-9.22,8.47s3.77,8.61,9.27,8.61a16.27,16.27,0,0,0,6.74-1.48l.63,3.53a19,19,0,0,1-7.37,1.58c-7.84,0-13.19-5-13.19-12.24S210.45,42.43,218.26,42.43ZM250,52.07V66.28h-3.85V53c0-4.55-2.38-6.94-6.57-6.94a6.88,6.88,0,0,0-7.22,7V66.28h-3.87V33.23h3.89V46.42a9,9,0,0,1,7.81-4C246.3,42.43,250,46.06,250,52.07ZM101.16,42.28a16.06,16.06,0,0,0-8.79,2.45l.44,3.77.19-.16a12.11,12.11,0,0,1,7.83-2.78c4.3,0,6.58,2.12,6.58,6.11v.59h-7c-8.26,0-9.49,4.4-9.49,7,0,4.38,3.53,7.22,9,7.22,3.55,0,5.92-1.22,7.58-3.44v3.2h3.56V51.81C111.1,45.57,107.67,42.28,101.16,42.28Zm-.7,21.2c-3.66,0-5.84-1.59-5.84-4.27s1.95-4.06,5.94-4.06h6.85v3.59A6.89,6.89,0,0,1,100.46,63.48Zm90.25-21c-6.77,0-11.68,5.09-11.68,12.12s5.15,12.16,12.51,12.16a11.71,11.71,0,0,0,9.22-3.92l.24-.27-2.31-2.66-.33.37a8.6,8.6,0,0,1-6.73,2.87c-4.67,0-8.07-2.86-8.6-7.16h19.23v-.43c0-.18,0-.35,0-.52s0-.31,0-.44C202.31,47.44,197.54,42.46,190.71,42.46ZM183,52.79a7.75,7.75,0,0,1,15.39,0Z"/></g></g></svg>