<svg width="132" height="53" viewBox="0 10 132 33" fill="none" xmlns="http://www.w3.org/2000/svg">
<path d="M34.2669 12.934C34.2665 10.1088 33.293 7.37133 31.5125 5.18882C29.7321 3.00632 27.255 1.5141 24.5042 0.96689C21.7534 0.419678 18.8994 0.851392 16.4293 2.18834C13.9592 3.52529 12.0262 5.6846 10.9602 8.29767C11.3411 8.26185 11.7322 8.24138 12.1233 8.24138C14.1114 8.24149 16.069 8.7349 17.823 9.67804C19.577 10.6212 21.0736 11.985 22.1805 13.6491C23.2874 15.3132 23.9705 17.2263 24.1696 19.2195C24.3687 21.2127 24.0776 23.2246 23.3221 25.0776C26.3176 24.7851 29.0978 23.3796 31.1211 21.1347C33.1444 18.8898 34.2658 15.9664 34.2669 12.934Z" fill="#FFFFFF99"/>
<path d="M10.0307 12.9337C10.0298 11.3432 10.3387 9.76803 10.9398 8.29736C7.94473 8.58987 5.16508 9.99562 3.14263 12.2406C1.12018 14.4856 -0.000152378 17.409 1.5545e-08 20.4409V32.6356H12.1028C14.5031 32.6373 16.8495 31.9195 18.8437 30.5735C20.8379 29.2276 22.3897 27.3144 23.3016 25.0772C22.9207 25.1131 22.5297 25.1335 22.1386 25.1335C18.9274 25.1335 15.8477 23.8482 13.577 21.5603C11.3063 19.2724 10.0307 16.1693 10.0307 12.9337Z" fill="#FFFFFFCC"/>
<path d="M12.123 8.24121C11.7319 8.24121 11.3408 8.24121 10.9599 8.2975C10.2044 10.1505 9.91328 12.1624 10.1124 14.1556C10.3115 16.1488 10.9946 18.0619 12.1015 19.726C13.2084 21.39 14.705 22.7539 16.459 23.697C18.213 24.6402 20.1706 25.1336 22.1587 25.1337C22.5498 25.1337 22.9409 25.1337 23.3218 25.0774C24.0774 23.2244 24.3684 21.2125 24.1693 19.2193C23.9702 17.2261 23.2871 15.313 22.1802 13.6489C21.0733 11.9849 19.5768 10.621 17.8227 9.67788C16.0687 8.73474 14.1112 8.24132 12.123 8.24121Z" fill="#FFFFFF"/>
<path fill-rule="evenodd" clip-rule="evenodd" d="M63.3481 32.1186C64.0083 32.5341 64.7741 32.7475 65.5524 32.7327C66.3433 32.7403 67.119 32.5124 67.7819 32.0777C68.465 31.6192 68.9735 30.9409 69.2243 30.1535L75.8725 10.9429H72.0482L66.2177 28.6644C66.1718 28.8406 66.0827 29.0025 65.9587 29.1352C65.9061 29.19 65.8429 29.2333 65.773 29.2624C65.7031 29.2915 65.628 29.3056 65.5524 29.304C65.4781 29.3068 65.4041 29.2931 65.3357 29.2639C65.2672 29.2348 65.2059 29.1908 65.1562 29.1352C65.0376 28.996 64.9447 28.8365 64.8819 28.6644L59.2394 10.9429H55.2322L61.8804 30.1637C62.1461 30.9586 62.6613 31.6448 63.3481 32.1186ZM131.719 24.4632C131.718 24.1572 131.701 23.8515 131.669 23.5472C131.494 21.9731 130.874 20.4827 129.882 19.2541C128.89 18.0256 127.568 17.1108 126.074 16.619C124.579 16.1273 122.976 16.0794 121.455 16.4811C119.935 16.8828 118.561 17.7171 117.499 18.8843C116.436 20.0515 115.729 21.5022 115.463 23.0633C115.197 24.6243 115.382 26.2295 115.997 27.6872C116.612 29.1449 117.63 30.3935 118.93 31.2837C120.231 32.1739 121.758 32.6681 123.329 32.7073H123.532C125.214 32.7095 126.856 32.1857 128.23 31.2079V32.3542H131.719V24.4632ZM126.844 28.3115C125.97 29.081 124.861 29.5256 123.701 29.5715C122.541 29.6173 121.401 29.2616 120.47 28.5635C119.539 27.8654 118.873 26.867 118.584 25.7346C118.294 24.6022 118.398 23.404 118.879 22.3395C119.359 21.275 120.187 20.4084 121.224 19.884C122.262 19.3596 123.446 19.209 124.58 19.4573C125.714 19.7055 126.73 20.3377 127.458 21.2485C128.185 22.1593 128.582 23.2938 128.581 24.4632C128.58 25.1923 128.424 25.9129 128.125 26.5765C127.825 27.2402 127.389 27.8318 126.844 28.3115ZM47.7917 32.3645C46.2118 32.3999 44.6459 32.0598 43.2208 31.3718C41.9721 30.7553 40.9173 29.8023 40.1735 28.6186C39.4334 27.4002 39.0546 25.9939 39.0815 24.5657C39.0509 23.0891 39.3842 21.628 40.0516 20.3131C40.6663 19.1278 41.5899 18.1336 42.723 17.4372C43.9091 16.7374 45.2647 16.3831 46.6388 16.4137C48.0798 16.3552 49.5057 16.7273 50.7374 17.4832C51.7972 18.1823 52.6264 19.1835 53.1194 20.3592C53.6521 21.6366 53.9167 23.0113 53.8964 24.3968V24.3968C53.8964 24.6015 53.8964 24.8369 53.866 25.0979C53.8548 25.305 53.8242 25.5106 53.7746 25.712H42.784C42.874 26.4665 43.1812 27.1781 43.6677 27.7589C44.1428 28.3093 44.7469 28.7315 45.425 28.9871C46.1826 29.2675 46.9846 29.4062 47.7917 29.3965H51.9513V32.3953L47.7917 32.3645ZM42.7535 23.3119H50.4022C50.3859 22.9203 50.3314 22.5312 50.2397 22.1503C50.15 21.765 50.0064 21.3945 49.8131 21.05C49.6234 20.712 49.3778 20.4091 49.0868 20.1545C48.7736 19.8923 48.4179 19.6863 48.0355 19.5455C47.5876 19.3841 47.1144 19.3061 46.6388 19.3152C46.0837 19.3037 45.5337 19.4247 45.0339 19.6683C44.5818 19.8896 44.1792 20.2012 43.8505 20.5843C43.5249 20.9622 43.2718 21.3978 43.1039 21.8688C42.9343 22.3352 42.8168 22.8193 42.7535 23.3119ZM85.5527 32.7328C84.1928 32.7659 82.8464 32.4545 81.6369 31.827C80.5586 31.2613 79.6634 30.3965 79.0569 29.3349C78.4428 28.2437 78.129 27.007 78.1478 25.7527V16.7666H81.642V25.7271C81.6166 26.4619 81.7923 27.1895 82.1499 27.8304C82.4899 28.4213 82.9833 28.9078 83.577 29.2377C84.1769 29.57 84.8504 29.7443 85.5349 29.7443C86.2195 29.7443 86.893 29.57 87.4928 29.2377C88.0855 28.9064 88.5785 28.4202 88.92 27.8304C89.2736 27.1917 89.4491 26.4684 89.4278 25.7374V16.7666H92.917V25.7834C92.938 27.04 92.6184 28.2785 91.9926 29.3656C91.3819 30.4239 90.4878 31.2876 89.4126 31.8577C88.2183 32.4686 86.8916 32.7694 85.5527 32.7328ZM97.3 23.373V32.3643L100.789 32.3745V23.414C100.773 22.6786 100.958 21.953 101.322 21.3158C101.665 20.7271 102.158 20.2412 102.75 19.9086C103.337 19.5735 104 19.3972 104.674 19.3968C105.197 19.3891 105.716 19.4877 106.201 19.6868C106.685 19.8858 107.124 20.1812 107.493 20.5552C107.861 20.9292 108.151 21.3743 108.345 21.8637C108.538 22.3531 108.632 22.8769 108.621 23.4037V32.3643H112.084V23.373C112.105 22.1179 111.789 20.8804 111.17 19.7909C110.564 18.7379 109.675 17.8792 108.605 17.3141C107.402 16.6858 106.06 16.3743 104.705 16.4083C103.345 16.3752 101.999 16.6866 100.789 17.3141C99.7139 17.8771 98.8192 18.7359 98.2091 19.7909C97.5941 20.8817 97.2802 22.1186 97.3 23.373Z" fill="#FFFFFF"/>
</svg>
