<svg xmlns="http://www.w3.org/2000/svg" width="87.348" height="33.201" viewBox="0 0 87.348 33.201"><defs><style>.b{fill:#fff;}</style></defs><g class="a" transform="translate(-1263.88 -1744.795)"><path class="b" d="M1273.561,1755.548v10.83l6.286-5.45Z"/><path class="b" d="M1288.04,1769.073v-16.24h10.6v2.349h-7.686v4.448h7.23V1762h-7.23v7.07Z"/><rect class="b" width="2.829" height="2.349" transform="translate(1300.907 1752.833)"/><rect class="b" width="2.829" height="11.518" transform="translate(1300.907 1757.555)"/><path class="b" d="M1317.513,1762v7.07h-2.849v-6.934a3.1,3.1,0,0,0-.525-2,2,2,0,0,0-1.619-.626,2.777,2.777,0,0,0-2.1.831,3.048,3.048,0,0,0-.8,2.2v6.523h-2.829v-8.257a26.22,26.22,0,0,0-.182-3.261h2.668l.206,1.892a4.184,4.184,0,0,1,1.608-1.619,4.611,4.611,0,0,1,2.292-.57Q1317.513,1757.258,1317.513,1762Z"/><path class="b" d="M1324.124,1759.7v5.154q0,2.032,1.892,2.031a4.019,4.019,0,0,0,1.141-.183v2.257a5.347,5.347,0,0,1-1.824.275,3.974,3.974,0,0,1-3.011-1.1,4.37,4.37,0,0,1-1.049-3.148V1759.7h-2.212v-2.144h2.212v-2.806l2.851-.957v3.763h3.056v2.144Z"/><path class="b" d="M1339.1,1763.794H1331.2a3.813,3.813,0,0,0,.893,2.394,3.175,3.175,0,0,0,2.475.878,5.68,5.68,0,0,0,3.512-1.232l.821,1.962a6.41,6.41,0,0,1-2.019,1.061,7.631,7.631,0,0,1-2.429.4,6.059,6.059,0,0,1-4.448-1.6,5.87,5.87,0,0,1-1.619-4.379,6.713,6.713,0,0,1,.707-3.125,5.22,5.22,0,0,1,1.984-2.133,5.54,5.54,0,0,1,2.9-.764,4.782,4.782,0,0,1,3.752,1.54,6.1,6.1,0,0,1,1.38,4.23Zm-6.923-3.811a3.306,3.306,0,0,0-.923,1.951h5.36a3.191,3.191,0,0,0-.786-1.962,2.4,2.4,0,0,0-1.791-.66A2.615,2.615,0,0,0,1332.182,1759.983Z"/><path class="b" d="M1343.62,1768.526a4.977,4.977,0,0,1-2.03-2.065,7.229,7.229,0,0,1,.034-6.306,5.294,5.294,0,0,1,2.1-2.133,6.283,6.283,0,0,1,3.135-.764,7.439,7.439,0,0,1,2.385.388,4.642,4.642,0,0,1,1.836,1.072l-.8,2.006a5.612,5.612,0,0,0-1.551-.9,4.6,4.6,0,0,0-1.62-.307,3.077,3.077,0,0,0-2.418.968,4.951,4.951,0,0,0-.012,5.577,3.088,3.088,0,0,0,2.43.959,4.474,4.474,0,0,0,1.62-.32,5.811,5.811,0,0,0,1.551-.912l.8,2.007a5.09,5.09,0,0,1-1.894,1.072,7.647,7.647,0,0,1-2.44.387A6.376,6.376,0,0,1,1343.62,1768.526Z"/><path class="b" d="M1272.141,1769.936l-8.26,8.06v-16.72Z"/><path class="b" d="M1272.138,1753.538l-8.258,7.053,0-15.58Z"/><path class="b" d="M1264.131,1744.834l9.07,7.794,8.719-7.833Z"/><path class="b" d="M1273.056,1753.237v15.542l-9.044-7.82Z"/><path class="b" d="M1302.75,1775.6h-.272l-.275-.741a.313.313,0,0,0-.14-.184.541.541,0,0,0-.252-.047h-.557v.972H1301v-2.227h.886a.843.843,0,0,1,.551.159.564.564,0,0,1,.192.46.581.581,0,0,1-.114.368.614.614,0,0,1-.329.211.3.3,0,0,1,.166.084.532.532,0,0,1,.115.191Zm-.886-1.186q.515,0,.514-.418a.37.37,0,0,0-.126-.308.606.606,0,0,0-.388-.1h-.61v.829Z"/><path class="b" d="M1304.024,1775.6v-2.227h1.408v.212h-1.155v.776h1.092v.217h-1.092v.81h1.155v.212Z"/><path class="b" d="M1306.717,1775.6v-2.227h.257v2.227Z"/><path class="b" d="M1309.943,1773.375h.245v2.227h-.2l-1.344-1.793v1.793h-.242v-2.227h.2l1.344,1.793Z"/><path class="b" d="M1313.277,1773.375h.266l-.972,2.227h-.226l-.972-2.227h.272l.815,1.9Z"/><path class="b" d="M1314.726,1775.6v-2.227h1.408v.212h-1.154v.776h1.092v.217h-1.092v.81h1.154v.212Z"/><path class="b" d="M1318.959,1773.375h.245v2.227h-.2l-1.344-1.793v1.793h-.242v-2.227h.2l1.344,1.793Z"/><path class="b" d="M1321.18,1775.6v-2.008h-.776v-.219h1.812v.219h-.776v2.008Z"/><path class="b" d="M1323.419,1775.6v-2.227h.257v2.227Z"/><path class="b" d="M1326.646,1773.375h.244v2.227h-.2l-1.344-1.793v1.793h-.242v-2.227h.2l1.345,1.793Z"/><path class="b" d="M1330.074,1774.441v1.032a1.249,1.249,0,0,1-.344.112,2.23,2.23,0,0,1-.432.043,1.146,1.146,0,0,1-.573-.137.9.9,0,0,1-.367-.392,1.381,1.381,0,0,1-.127-.614,1.361,1.361,0,0,1,.127-.608.905.905,0,0,1,.363-.391,1.094,1.094,0,0,1,.558-.136,1.289,1.289,0,0,1,.431.07.935.935,0,0,1,.336.211l-.1.2a1.189,1.189,0,0,0-.317-.2.949.949,0,0,0-.35-.061.718.718,0,0,0-.58.236,1.251,1.251,0,0,0,.005,1.371.755.755,0,0,0,.6.235,1.636,1.636,0,0,0,.535-.088v-.678h-.554v-.2Z"/><path class="b" d="M1332.937,1775.6v-2.227h1.378v.216h-1.124v.772h1.06v.217h-1.06v1.022Z"/><path class="b" d="M1335.554,1775.6v-2.227h.256v2.227Z"/><path class="b" d="M1338.78,1773.375h.244v2.227h-.2l-1.344-1.793v1.793h-.242v-2.227h.2l1.344,1.793Z"/><path class="b" d="M1342.156,1775.6l-.243-.572h-1.163l-.247.572h-.267l.98-2.227h.224l.979,2.227Zm-1.316-.785h.981l-.49-1.145Z"/><path class="b" d="M1345.176,1773.375h.245v2.227h-.2l-1.344-1.793v1.793h-.242v-2.227h.2l1.344,1.793Z"/><path class="b" d="M1347.24,1775.489a.905.905,0,0,1-.358-.4,1.374,1.374,0,0,1-.125-.609,1.353,1.353,0,0,1,.125-.6.914.914,0,0,1,.358-.392,1.06,1.06,0,0,1,.549-.138,1.249,1.249,0,0,1,.424.07.914.914,0,0,1,.333.211l-.1.2a1.08,1.08,0,0,0-.315-.2.928.928,0,0,0-.341-.06.706.706,0,0,0-.568.238,1.244,1.244,0,0,0,0,1.356.7.7,0,0,0,.57.241.928.928,0,0,0,.341-.06,1.055,1.055,0,0,0,.315-.2l.1.2a.878.878,0,0,1-.333.211,1.225,1.225,0,0,1-.424.071A1.061,1.061,0,0,1,1347.24,1775.489Z"/><path class="b" d="M1349.82,1775.6v-2.227h1.408v.212h-1.154v.776h1.091v.217h-1.091v.81h1.154v.212Z"/></g></svg>