<svg xmlns="http://www.w3.org/2000/svg" width="225.08" height="41.72" viewBox="0 0 225.08 41.72"><defs><style>.cls-1{fill:#fff;}</style></defs><title>Asset 1</title><g id="Layer_2" data-name="Layer 2"><g id="Layer_1-2" data-name="Layer 1"><path class="cls-1" d="M16.11,0c10,0,16,7.68,16,16.11A15.9,15.9,0,0,1,16.42,32.22h-.31C5,32.22,0,23.56,0,16.11A16,16,0,0,1,15.89,0ZM16,26.54c5.46,0,9.59-4.48,9.59-10.43S21.83,5.68,16.06,5.68c-5.41,0-9.58,4.48-9.58,10.43S10.61,26.54,16,26.54ZM34.61,10h5.77v2.52h.18a8.27,8.27,0,0,1,6.84-3.1c4.48,0,9.76,3.73,9.76,11.31C57.16,27.51,52.45,32,47,32a7.75,7.75,0,0,1-6.39-3.06h-.18v6.92a5.86,5.86,0,0,1-5.86,5.86h0Zm11,4.61c-2.89,0-5.29,2.44-5.29,6.12s2.4,6.13,5.33,6.13c3.64,0,5.46-3.11,5.46-6.13,0-3.2-1.81-6.13-5.53-6.13ZM74.7,1.26h6.08V7H74.7Zm0,8.73h6V25.25a6,6,0,0,1-6,6h0Zm38.6.66h-6.84a7.66,7.66,0,0,0-7.63-5.24c-5.37,0-9.19,4.35-9.19,10.65,0,5.82,3.73,10.74,9.28,10.74a7.79,7.79,0,0,0,6.62-3.24,6.09,6.09,0,0,1,5-2.48h2.92C111.51,27.2,107,32.22,98.74,32.22c-9.36,0-15.58-7-15.58-16.2S89.78,0,98.87,0C107.31,0,112.23,5.59,113.3,10.65Zm13.27-1.37a11,11,0,0,1,11.36,10.63c0,.23,0,.45,0,.68a11.37,11.37,0,0,1-22.73.67c0-.22,0-.44,0-.67A11,11,0,0,1,125.88,9.28Zm0,17.39c3.23,0,5.28-2.62,5.28-6s-1.91-6-5.28-6-5.33,2.57-5.33,6S123.55,26.67,126.57,26.67ZM140.19,1.21h6v30h0a6,6,0,0,1-6-6Zm9.72,0h6v30h-6ZM180,20.46a10.66,10.66,0,0,1-.09,1.6h-15.8a5.55,5.55,0,0,0,5.51,5.45,4.84,4.84,0,0,0,4.26-2.21h5.81c-1.37,3.59-4.53,6.7-10.12,6.7-6.34,0-11.31-4.62-11.31-11.54,0-6.08,4-11.18,10.91-11.18S180,14.51,180,20.46ZM164.11,18h9.94a5,5,0,0,0-9.94,0Zm39.1-1h-6a4,4,0,0,0-4.13-2.71c-3.24,0-5.19,2.53-5.19,6.26,0,3.51,2,6.3,5.37,6.3a4.29,4.29,0,0,0,3.24-1.32,5.33,5.33,0,0,1,4-1.53h3.13c-1.19,4.35-4.43,8-10.38,8a11,11,0,0,1-11.36-10.62c0-.28,0-.55,0-.83,0-6.22,4.3-11.27,11.32-11.27A9.8,9.8,0,0,1,203.21,17Zm12.55,9.45c-1.9,0-2.66-.66-2.66-3.15V15h5V10h-5V1.21h0a6,6,0,0,0-6,6V10h-2.58v5h2.58v8.88c0,4.61,1.77,7.63,7.1,7.63a17.25,17.25,0,0,0,4.17-.57V26.1A10.94,10.94,0,0,1,215.76,26.45Zm-146.4,0c-1.91,0-2.66-.66-2.66-3.15V15h0a5,5,0,0,0,5-5h-5V1.21h-6V10H58.09v5h2.58v8.88c0,4.61,1.77,7.63,7.09,7.63A17.19,17.19,0,0,0,71.93,31V26.1A10.61,10.61,0,0,1,69.36,26.45ZM219.4,4.7v-3h-1.15V1.16h2.95v.53H220v3Zm5.18-3.54h.5V4.7h-.56V2.5l-.94,2.2h-.42l-.94-2.17V4.7h-.57V1.16h.51l1.21,2.77Z"/></g></g></svg>