<svg xmlns="http://www.w3.org/2000/svg" width="197" height="46" viewBox="0 0 197 46"><defs><linearGradient x1="0%" y1="50%" x2="100%" y2="50%" id="a"><stop stop-color="#0CF" offset="0%"/><stop stop-color="#3F9" offset="100%"/></linearGradient></defs><g fill="none"><path d="M0 45.15l29.366-12.392-9.29-9.444L0 45.15zm10.786-31.268l9.29 9.432L36.67 3 10.786 13.882z" fill="url(#a)" style="&#10;    fill: white;&#10;"/><path fill="#FFF" d="M51.357 18.474h-4.57v-2.407H58.59v2.411h-4.555v13.606h-2.677zm12.712-2.407h2.694v6.925h6.813v-6.925h2.716v16.017h-2.716v-6.685h-6.813v6.685H64.07zM85.404 31.46c-.922-.419-1.618-1.212-2.086-2.38-.469-1.166-.703-2.884-.703-5.153 0-2.261.238-3.99.713-5.187.475-1.196 1.175-2.013 2.098-2.448.922-.43 2.16-.646 3.711-.647 1.552 0 2.8.215 3.744.647.93.43 1.628 1.24 2.098 2.429.47 1.189.704 2.922.703 5.199 0 2.262-.238 3.98-.715 5.154-.476 1.174-1.171 1.969-2.086 2.385-.915.416-2.162.624-3.744.625-1.58 0-2.825-.207-3.733-.625zm6.05-2.245c.534-.292.919-.842 1.153-1.652.234-.809.352-2.025.352-3.647 0-1.678-.121-2.933-.364-3.765-.242-.832-.626-1.387-1.152-1.665-.527-.275-1.295-.413-2.306-.414-.98 0-1.734.142-2.262.426-.527.284-.915.838-1.163 1.663-.25.824-.374 2.076-.374 3.755 0 1.634.113 2.85.34 3.647.226.798.606 1.349 1.139 1.652.527.292 1.303.438 2.328.438 1.005 0 1.775-.146 2.309-.438zm10.972-13.148h6.553c1.369 0 2.454.358 3.255 1.075.8.717 1.201 2.015 1.201 3.893 0 1.419-.251 2.453-.754 3.103a4.077 4.077 0 01-1.976 1.391l3.101 6.555h-2.73l-2.796-6.164c-.888 0-1.944-.015-3.167-.045v6.209h-2.687V16.067zm6.094 7.707c.7 0 1.241-.2 1.627-.597.385-.397.58-1.11.582-2.137 0-.985-.194-1.66-.582-2.027-.388-.366-.93-.547-1.627-.542h-3.407v5.295l3.407.008zm13.228 7.665c-.799-.431-1.41-1.245-1.831-2.441-.422-1.197-.632-2.926-.631-5.187 0-2.147.214-3.814.642-5.002.429-1.188 1.057-2.012 1.885-2.474.826-.46 1.896-.69 3.211-.69.864.001 1.727.07 2.58.209.749.113 1.49.277 2.217.492v2.083c-.428-.086-1.039-.166-1.832-.239a26.468 26.468 0 00-2.426-.11c-.942 0-1.667.15-2.174.449-.508.298-.875.857-1.102 1.675-.229.817-.343 2.033-.343 3.648 0 1.615.107 2.834.321 3.656.214.819.571 1.38 1.07 1.685.5.305 1.236.458 2.206.46a33.18 33.18 0 004.283-.241v2.08c-1.3.389-2.92.586-4.86.592-1.345 0-2.416-.214-3.216-.645zm14.398-15.372h2.695v6.925h6.813v-6.925h2.716v16.017h-2.716v-6.685h-6.813v6.685h-2.695zm23.364 0h3.416l5.255 16.017h-2.825l-1.248-3.803h-5.838l-1.226 3.799h-2.773l5.24-16.013zm3.942 9.81l-2.277-7.508-2.277 7.508h4.554zm10.63-9.81h2.529v16.017h-2.53zm9.694 0h2.165l7.347 11.437V16.067H196v16.017h-2.165l-7.347-11.43v11.43h-2.712z"/></g></svg>