<?xml version="1.0" encoding="utf-8"?>
<!-- Generator: Adobe Illustrator 24.0.0, SVG Export Plug-In . SVG Version: 6.00 Build 0)  -->
<svg version="1.1" id="Layer_1" xmlns="http://www.w3.org/2000/svg" xmlns:xlink="http://www.w3.org/1999/xlink" x="0px" y="0px"
	 viewBox="0 0 114.7 61" style="enable-background:new 0 0 114.7 61;" xml:space="preserve">
<style type="text/css">
	.st0{fill-rule:evenodd;clip-rule:evenodd;fill:#CADB2C;}
	.st1{fill:#CADB2C;}
	.st2{fill:#A4BA16;}
</style>
<title>1_Web development</title>
<g>
	<g id="Layer_2_1_">
		<g id="Layer_1-2">
			<polygon class="st0" points="114.7,33.6 95.9,18.7 95.9,12.4 114.7,27.4 			"/>
			<polygon class="st0" points="114.7,27.4 95.9,42.3 95.9,48.6 114.7,33.6 			"/>
			<polygon class="st0" points="0,33.6 18.8,18.7 18.8,12.4 0,27.4 			"/>
			<polygon class="st0" points="114.7,27.4 95.9,42.3 95.9,48.6 114.7,33.6 			"/>
			<polygon class="st0" points="0,33.6 18.8,18.7 18.8,12.4 0,27.4 			"/>
			<polygon class="st0" points="0,27.4 18.8,42.3 18.8,48.6 0,33.6 			"/>
			<path class="st1" d="M56.1,29.3H42.7c0.1-3.9,0.5-7.8,1.4-11.6c3.9,1,8,1.5,12,1.6C56.1,19.3,56.1,29.3,56.1,29.3z M56.1,31.7v10
				c-4,0.1-8.1,0.6-12,1.6c-0.9-3.8-1.3-7.7-1.4-11.6L56.1,31.7z M58.6,31.7H72c-0.1,3.9-0.5,7.8-1.4,11.6c-3.9-1-8-1.5-12-1.6V31.7
				z M58.6,29.3v-10c4-0.1,8.1-0.6,12-1.6c0.9,3.8,1.3,7.7,1.4,11.6H58.6z M58.6,16.8V0c4.8,0.9,9,6.9,11.4,15.3
				C66.3,16.2,62.4,16.7,58.6,16.8z M56.1,0v16.8c-3.8-0.1-7.7-0.6-11.4-1.5C47.1,6.9,51.3,0.9,56.1,0z M40.3,29.3H26.9
				c0.2-5.9,2.2-11.7,5.7-16.5c2.8,1.8,5.9,3.3,9.2,4.3C40.8,21,40.3,25.1,40.3,29.3z M40.3,31.7c0.1,4.1,0.5,8.2,1.4,12.3
				c-3.2,1-6.3,2.4-9.2,4.2c-3.5-4.8-5.4-10.6-5.6-16.5H40.3z M56.1,44.2V61c-4.8-0.9-9-6.9-11.4-15.3
				C48.5,44.8,52.3,44.3,56.1,44.2z M58.6,61V44.2c3.8,0.1,7.7,0.6,11.4,1.5C67.6,54.1,63.4,60.1,58.6,61z M74.5,31.7h13.4
				c-0.2,5.9-2.2,11.7-5.7,16.5c-2.9-1.8-6-3.3-9.2-4.3C73.9,40,74.4,35.9,74.5,31.7z M74.5,29.3C74.4,25.1,73.9,21,73,17
				c3.2-1,6.3-2.4,9.2-4.2c3.5,4.8,5.4,10.6,5.7,16.5H74.5z M80.7,10.8c-2.6,1.6-5.3,2.9-8.3,3.8c-1.6-5.9-4.2-10.7-7.3-13.7
				C71.2,2.5,76.6,6,80.7,10.8z M49.6,0.9c-3.1,3-5.7,7.8-7.3,13.7c-2.9-0.9-5.7-2.2-8.3-3.8C38.1,6,43.5,2.5,49.6,0.9z M34,50.2
				c2.6-1.6,5.3-2.9,8.3-3.8c1.6,5.9,4.2,10.7,7.3,13.7C43.5,58.5,38,55,34,50.2z M65.1,60.1c3.1-3,5.7-7.8,7.3-13.7
				c2.9,0.9,5.7,2.2,8.3,3.8C76.6,55,71.2,58.5,65.1,60.1L65.1,60.1z"/>
			<path class="st2" d="M87.9,31.7H74.5C74.4,35.9,73.9,40,73,44c3.2,1,6.3,2.4,9.2,4.2C85.6,43.4,87.6,37.7,87.9,31.7z"/>
			<path class="st2" d="M58.6,61c4.8-0.9,9-6.9,11.4-15.3c-3.7-0.9-7.5-1.4-11.4-1.5V61z"/>
			<path class="st2" d="M80.7,50.2c-2.6-1.6-5.3-2.9-8.3-3.8c-1.6,5.9-4.2,10.7-7.3,13.7C71.2,58.5,76.6,55,80.7,50.2z"/>
			<path class="st2" d="M74.5,29.3h13.4C87.7,26.1,87.1,23,86,20L74.5,29.3L74.5,29.3z"/>
			<path class="st2" d="M44.7,53l-4,3.2c2.7,1.8,5.7,3.1,8.8,3.9C47.5,58,45.9,55.6,44.7,53z"/>
			<path class="st2" d="M56.1,61V44.2h-0.5l-8.9,7.1C49.2,56.7,52.5,60.3,56.1,61z"/>
			<path class="st2" d="M70.6,43.3c0.9-3.8,1.3-7.7,1.4-11.6h-0.7l-12.5,10C62.8,41.8,66.7,42.4,70.6,43.3z"/>
		</g>
	</g>
</g>
</svg>
