<?xml version="1.0" encoding="utf-8"?>
<!-- Generator: Adobe Illustrator 24.0.0, SVG Export Plug-In . SVG Version: 6.00 Build 0)  -->
<svg version="1.1" id="Layer_1" xmlns="http://www.w3.org/2000/svg" xmlns:xlink="http://www.w3.org/1999/xlink" x="0px" y="0px"
	 viewBox="0 0 60.8 60.8" style="enable-background:new 0 0 60.8 60.8;" xml:space="preserve">
<style type="text/css">
	.st0{fill:#CADB2C;}
	.st1{fill:#A4BA16;}
	.st2{fill:#FFFFFF;}
</style>
<title>2_Infrastructure</title>
<g>
	<polygon class="st0" points="0,42.2 0,18.3 12,30.3 	"/>
	<polygon class="st0" points="18.3,60.5 42.2,60.5 30.3,48.6 	"/>
	<polygon class="st0" points="42.2,0 18.3,0 30.3,12 	"/>
	<polygon class="st0" points="60.5,18.3 60.5,42.2 48.6,30.3 	"/>
	<path class="st0" d="M53.5,52.1l6.3-6.3L46.1,32L32,46.1l13.8,13.7l-0.9,0.9l7.2-7.2l-1.9-1.9l1.4-1.4L53.5,52.1z M45.1,46.5
		l-3.9-3.9l1.4-1.4l3.9,3.9L45.1,46.5z M14.8,0.7L8.4,7l1.9,1.9l-1.4,1.4L7,8.4l-6.3,6.3l13.7,13.7l14.1-14.1L14.8,0.7z M14.1,15.5
		l1.4-1.4l3.9,3.9l-1.4,1.4L14.1,15.5z"/>
	<path class="st0" d="M53.5,8.4l-1.9,1.9l-1.4-1.4L52.1,7l-6.3-6.3L32,14.4l14.1,14.1l13.8-13.7L53.5,8.4z M42.6,19.4L41.2,18
		l3.9-3.9l1.4,1.4L42.6,19.4z"/>
	<path class="st1" d="M30.4,16.3L16.3,30.4l14.1,14.1l14.1-14.1L30.4,16.3z M24.6,23.3l3.9,3.8l-1.4,1.4l-3.9-3.9L24.6,23.3z
		 M24.6,37.5l-1.4-1.4l3.9-3.8l1.4,1.4L24.6,37.5z M36.1,23.3l1.4,1.4l-3.8,3.8l-1.4-1.4L36.1,23.3z M32.2,33.7l1.4-1.4l3.9,3.8
		l-1.4,1.4L32.2,33.7z"/>
	<path class="st0" d="M14.4,32.1L0.7,45.8L7,52.1l1.9-1.9l1.4,1.4l-1.9,1.9l6.3,6.3l13.8-13.7L14.4,32.1z M14.1,45.1l3.9-3.9
		l1.4,1.4l-3.9,3.9L14.1,45.1z"/>
	<polygon class="st2" points="60.8,15.7 59.9,14.8 59.9,14.8 	"/>
	<polygon class="st0" points="7.4,60.5 0,60.5 0,53.2 2,53.2 2,58.5 7.4,58.5 	"/>
	<polygon class="st0" points="60.5,7.4 58.5,7.4 58.5,2 53.2,2 53.2,0 60.5,0 	"/>
	<polygon class="st0" points="60.5,60.5 53.2,60.5 53.2,58.5 58.5,58.5 58.5,53.2 60.5,53.2 	"/>
	<polygon class="st0" points="2,7.4 0,7.4 0,0 7.4,0 7.4,2 2,2 	"/>
</g>
</svg>
