<?xml version="1.0" encoding="utf-8"?>
<!-- Generator: Adobe Illustrator 24.0.0, SVG Export Plug-In . SVG Version: 6.00 Build 0)  -->
<svg version="1.1" id="Layer_1" xmlns="http://www.w3.org/2000/svg" xmlns:xlink="http://www.w3.org/1999/xlink" x="0px" y="0px"
	 viewBox="0 0 34 61" style="enable-background:new 0 0 34 61;" xml:space="preserve">
<style type="text/css">
	.st0{fill:#A4BA16;}
	.st1{fill:#CADB2C;}
</style>
<title>3_Mobile app</title>
<g>
	<path class="st0" d="M0,54.8V61h32c1.1,0,2-0.9,2-2v-4.2H0z M17,59.1c-0.8,0-1.5-0.7-1.5-1.5s0.7-1.5,1.5-1.5s1.5,0.7,1.5,1.5
		C18.5,58.5,17.8,59.1,17,59.1z"/>
	<path class="st0" d="M6,29.5c-0.6,0-1,0.4-1,1v16.4h23c0.6,0,1-0.4,1-1V29.5H6z"/>
	<path class="st0" d="M2,0C0.9,0,0,0.9,0,2v2.3h34V0H2z"/>
	<path class="st1" d="M0,6.3v46.5h34V6.3H0z M21.9,12H29v2h-7.1V12z M3,13c0-1.7,1.3-3,3-3h12.9v11.9c0,1.7-1.3,3-3,3H3V13z
		 M31,45.9c0,1.7-1.3,3-3,3H3V30.5c0-1.7,1.3-3,3-3h25V45.9z M31,24.9h-9.1v-2H31V24.9z M31,19.4h-9.1v-2H31V19.4z"/>
	<path class="st0" d="M16.9,21.9V12H6c-0.6,0-1,0.4-1,1v9.9h10.9C16.4,22.9,16.9,22.5,16.9,21.9z"/>
</g>
</svg>
