<?xml version="1.0" encoding="utf-8"?>
<!-- Generator: Adobe Illustrator 24.0.0, SVG Export Plug-In . SVG Version: 6.00 Build 0)  -->
<svg version="1.1" id="Layer_1" xmlns="http://www.w3.org/2000/svg" xmlns:xlink="http://www.w3.org/1999/xlink" x="0px" y="0px"
	 viewBox="0 0 64.8 62.2" style="enable-background:new 0 0 64.8 62.2;" xml:space="preserve">
<style type="text/css">
	.st0{fill:#CADB2C;}
	.st1{fill:#FFFFFF;}
	.st2{fill:#A4BA16;}
</style>
<title>4_Product management_1</title>
<g>
	<path class="st0" d="M50.8,61.3l1-3.5c0.7-0.2,1.4-0.5,2-0.8l3.1,1.8c0.4,0.2,1,0.2,1.3-0.2l3.2-3.3c0.3-0.4,0.4-0.9,0.2-1.4
		l-1.7-3.2c0.3-0.7,0.6-1.3,0.8-2l3.4-1c0.5-0.2,0.8-0.6,0.8-1.1v-4.7c0-0.5-0.3-0.9-0.8-1.1l-3.4-1c-0.2-0.7-0.5-1.4-0.8-2l1.7-3.2
		c0.2-0.5,0.2-1-0.2-1.4l-3.3-3.4c-0.4-0.3-0.9-0.4-1.3-0.2l-3.1,1.8c-0.6-0.3-1.3-0.6-2-0.8l-1-3.5c-0.1-0.5-0.6-0.8-1.1-0.8h-4.5
		c-0.5,0-0.9,0.4-1.1,0.9l-1,3.5c-0.7,0.2-1.4,0.5-2,0.9l-3-1.8c-0.4-0.2-1-0.2-1.3,0.2l-3.2,3.4c-0.3,0.4-0.4,0.9-0.2,1.4l1.7,3.2
		c-0.3,0.6-0.6,1.3-0.8,2l-3.4,1c-0.5,0.2-0.8,0.7-0.8,1.2v4.8c0,0.5,0.3,0.9,0.8,1.1l3.4,1c0.2,0.7,0.5,1.4,0.8,2l-1.7,3.2
		c-0.2,0.5-0.2,1,0.2,1.4l3.2,3.3c0.3,0.4,0.9,0.4,1.3,0.2l3.1-1.8c0.6,0.3,1.3,0.6,2,0.8l1,3.5c0.1,0.5,0.6,0.8,1.1,0.8h4.6
		C50.3,62.1,50.7,61.8,50.8,61.3z M40.6,44c0.1-3.8,3.3-6.7,7.1-6.6c3.8,0.1,6.7,3.3,6.6,7.1c-0.1,3.7-3.1,6.6-6.8,6.6
		C43.6,51.1,40.5,47.9,40.6,44z"/>
	<path class="st0" d="M52.4,18.8v6.7c-0.5-1-1.6-1.6-2.7-1.6l0,0h-4.5c-1.4,0-2.6,1-3,2.3l-0.7,2.6l-0.2,0.1L39,27.6
		c-0.5-0.3-1-0.4-1.5-0.4c-0.8,0-1.7,0.3-2.2,1L32,31.5c-0.9,1-1.1,2.5-0.5,3.7l1.3,2.3L32.6,38l-2.4,0.7c-1.3,0.4-2.2,1.6-2.2,3
		v4.8c0,1.4,0.9,2.6,2.3,3l0.2,0.1H23V19.1L52.4,18.8z"/>
	<path class="st1" d="M50.4,16.8L35,17L50.4,16.8L50.4,16.8z"/>
	<polygon class="st0" points="21,18.7 21,48.6 9.7,40.7 9.7,10.4 	"/>
	<path class="st1" d="M9.7,10.4L21,18.7l0,0L9.7,10.4z"/>
	<polygon class="st0" points="50.4,16.9 35,17 22.3,17.2 11.9,9.6 11.6,9.4 39.4,8.8 50.4,16.8 	"/>
	<path class="st1" d="M22.3,17.1L11.9,9.6L22.3,17.1L35,17L22.3,17.1z"/>
	<path class="st0" d="M60.5,14.5V0H4.2C1.9,0,0,1.9,0,4.1c0,0,0,0,0,0V59h18.1v1.9h6.1v-6.1h-6.1v1.9H2.3V4.1c0-1,0.8-1.9,1.9-1.9
		l0,0h54v12.2c-1.8,0.6-2.7,2.6-2.1,4.4c0.6,1.8,2.6,2.7,4.4,2.1c1.8-0.6,2.7-2.6,2.1-4.4C62.3,15.6,61.5,14.8,60.5,14.5z"/>
	<path class="st2" d="M52.5,30.6v9.1c-1.2-1.3-2.9-2.2-4.8-2.3c-3.8-0.1-7,2.8-7.1,6.6c0,2.2,1,4.2,2.6,5.5h-8.6
		c-0.1-0.3-0.3-0.7-0.4-1l-3.4-1C30.3,47.4,30,47,30,46.5v-4.8c0-0.5,0.3-1,0.8-1.2l3.4-1c0.2-0.7,0.5-1.3,0.8-2l-1.7-3.2
		c-0.2-0.5-0.2-1,0.2-1.4l3.2-3.4c0.4-0.3,0.9-0.4,1.3-0.2l3,1.8c0.6-0.3,1.3-0.6,2-0.9l1-3.5c0.1-0.5,0.6-0.8,1.1-0.9h4.5
		c0.5,0,0.9,0.4,1.1,0.8l1,3.5C52,30.4,52.2,30.5,52.5,30.6z"/>
	<path class="st0" d="M51.8,49.6c0.3-0.2,0.5-0.4,0.7-0.7v0.7H51.8z"/>
</g>
</svg>
