<?xml version="1.0" encoding="utf-8"?>
<!-- Generator: Adobe Illustrator 24.0.0, SVG Export Plug-In . SVG Version: 6.00 Build 0)  -->
<svg version="1.1" id="Layer_1" xmlns="http://www.w3.org/2000/svg" xmlns:xlink="http://www.w3.org/1999/xlink" x="0px" y="0px"
	 viewBox="0 0 77 61" style="enable-background:new 0 0 77 61;" xml:space="preserve">
<style type="text/css">
	.st0{fill:#A4BA16;}
	.st1{fill:#CADB2C;}
</style>
<title>5_UX and UI</title>
<g>
	<rect x="5.8" y="32.2" class="st0" width="9.2" height="8"/>
	<rect x="43.3" y="32.2" class="st0" width="9.2" height="8"/>
	<path class="st1" d="M3,0C1.3,0,0,1.3,0,3v42.9h77V0H3z M16.8,41.9H4V30.4h12.8V41.9z M34.6,41.9h-11v-1.8h11V41.9z M34.6,37.1h-11
		v-1.8h11V37.1z M34.6,32.2h-11v-1.8h11V32.2z M54.3,41.9H41.5V30.4h12.8V41.9z M72.1,41.9h-11v-1.8h11V41.9z M72.1,37.1h-11v-1.8
		h11V37.1z M72.1,32.2h-11v-1.8h11V32.2z M73.1,24.1c0,1.7-1.3,3-3,3H3.9V8.6c0-1.7,1.3-3,3-3h66.2V24.1z"/>
	<path class="st0" d="M70.9,24.8c0.2-0.2,0.3-0.4,0.3-0.7V7.9l-29.3,8.5L70.9,24.8z"/>
	<polygon class="st0" points="65.4,7.6 11.6,7.6 38.5,15.4 	"/>
	<polygon class="st0" points="11.6,25.1 65.4,25.1 38.5,17.3 	"/>
	<path class="st0" d="M6.2,8C6,8.2,5.9,8.4,5.9,8.7v16.2l29.4-8.5L6.2,8z"/>
	<path class="st0" d="M0,47.7h77v3c0,1.7-1.3,3-3,3H0V47.7z"/>
	<path class="st1" d="M51.4,59.8l-4.2-6.1H29.8l-5,7.3h26c0.4,0,0.8-0.2,0.8-0.7C51.6,60.2,51.5,60,51.4,59.8z"/>
</g>
</svg>
