<?xml version="1.0" encoding="utf-8"?>
<!-- Generator: Adobe Illustrator 24.0.0, SVG Export Plug-In . SVG Version: 6.00 Build 0)  -->
<svg version="1.1" id="Layer_1" xmlns="http://www.w3.org/2000/svg" xmlns:xlink="http://www.w3.org/1999/xlink" x="0px" y="0px"
	 viewBox="0 0 95.8 58.5" style="enable-background:new 0 0 95.8 58.5;" xml:space="preserve">
<style type="text/css">
	.st0{fill:#CADB2C;}
	.st1{fill:#A4BA16;}
	.st2{fill:#FFFFFF;}
</style>
<title>6_Discovery</title>
<g>
	<polygon class="st0" points="88.4,14 92,16.4 68.5,52.1 64.9,49.7 64.8,49.7 61.2,47.4 84.8,11.7 	"/>
	<polygon class="st0" points="95.8,10.6 93.1,14.8 89.5,12.4 85.9,10 88.6,5.9 	"/>
	<polygon class="st1" points="88.4,14 92,16.4 68.5,52.1 64.9,49.7 	"/>
	<polygon class="st0" points="93.1,14.8 92.5,15.6 92.5,15.6 	"/>
	<polygon class="st0" points="67.7,54 59.1,58.5 59.8,48.8 	"/>
	<path class="st0" d="M92.5,15.6l0.6-0.8L92.5,15.6z"/>
	<polygon class="st0" points="95.8,10.6 93.1,14.8 89.5,12.4 85.9,10 88.6,5.9 	"/>
	<path class="st2" d="M92.5,15.6L92.5,15.6l0.6-0.8L92.5,15.6z"/>
	<path class="st0" d="M58.4,0v47.2c0,1.7-1.3,3-3,3H8.2V36h14.7c2.2,0,4-1.8,4-4V13.1H8.2V3c0-1.7,1.3-3,3-3H58.4z"/>
	<path class="st0" d="M24.9,15.1V32c0,1.1-0.9,2-2,2H0V17.1c0-1.1,0.9-2,2-2H24.9z"/>
	<path class="st1" d="M39.5,58.4h-4.6v-27c0-2.9,2.4-5.3,5.3-5.3h27v7.6h-2v-5.6h-25c-1.8,0-3.3,1.5-3.3,3.3v25h2.6
		C39.5,56.4,39.5,58.4,39.5,58.4z"/>
	<polygon class="st0" points="36.9,56.4 39.5,56.4 39.5,58.4 34.9,58.4 34.9,50.2 36.9,50.2 	"/>
	<polygon class="st0" points="67.2,26.1 67.2,33.7 65.2,33.7 65.2,28.1 58.4,28.1 58.4,26.1 	"/>
	<path class="st0" d="M53.8,56.4v2h2.8v-2H53.8z M47.8,56.4v2h4v-2H47.8z M41.8,56.4v2h4v-2H41.8z"/>
	<path class="st1" d="M22.9,34H8.2V15.1h16.7V32C24.9,33.1,24,34,22.9,34z"/>
</g>
</svg>
