<svg xmlns="http://www.w3.org/2000/svg" width="134.838" height="169.023" viewBox="0 0 134.838 169.023"><defs><style>.a{opacity:0.1;}.b{fill:#1a73e8;mix-blend-mode:multiply;isolation:isolate;}</style></defs><g class="a" transform="translate(-1381 -2469.535)"><path class="b" d="M1395.068,2493.97l5.435,20.848L1381,2523Z"/><path class="b" d="M1446.179,2498.509l-.282.336-39.454,16.532-6.781-25.891Z"/><path class="b" d="M1469.658,2602.411a16.39,16.39,0,0,1-3.418,9.976l-20.285,26.171-.058-62.318,4.765-6.109L1469.6,2545.7Z"/><path class="b" d="M1445.9,2498.845l-32.56,42.032a.8.8,0,0,1-.167.224l-6.727-25.724-6.78-25.89,46.516,9.022Z"/><path class="b" d="M1469.1,2537.235l-26.341,33.961-24.6-22.025a3.551,3.551,0,0,1-.394-4.819l32.952-42.48Z"/><path class="b" d="M1450.716,2501.872l18.384,35.363-26.341,33.961-24.6-22.025a3.551,3.551,0,0,1-.394-4.819Z"/><path class="b" d="M1454.471,2497l17.822-23.033-2.241,52.96Z"/><path class="b" d="M1515.838,2476.933l-40.236,51.895,2.353-55.874a3.648,3.648,0,0,1,1.4-2.69,3.788,3.788,0,0,1,2.184-.729c.224,0,.448.056.673.056Z"/><path class="b" d="M1515.838,2476.933l-40.236,51.895,2.353-55.874a3.648,3.648,0,0,1,1.4-2.69,3.788,3.788,0,0,1,2.184-.729c.224,0,.448.056.673.056Z"/></g></svg>