<svg xmlns="http://www.w3.org/2000/svg" width="126.184" height="44" viewBox="0 0 126.184 44"><defs><style>.a,.b{fill:#1a73e8;}.b{mix-blend-mode:multiply;isolation:isolate;}</style></defs><g transform="translate(-320 -13)"><path class="a" d="M333.161,50.311a6.3,6.3,0,0,1-6.446,6.634,5.6,5.6,0,0,1-4.585-2.238h-.054v2.077H320V37.949a1.013,1.013,0,0,1,1.013-1.013h1.17v8.683h.028a5.7,5.7,0,0,1,4.53-2.13C330.437,43.489,333.161,46.428,333.161,50.311Zm-2.24,0a4.448,4.448,0,0,0-4.448-4.8,4.511,4.511,0,0,0-4.369,4.8A4.438,4.438,0,0,0,326.5,54.95,4.349,4.349,0,0,0,330.921,50.311Z"/><path class="a" d="M337.957,36.936h1.169V55.77a1.013,1.013,0,0,1-1.013,1.014h-1.17V37.949A1.013,1.013,0,0,1,337.957,36.936Z"/><path class="a" d="M354.95,43.651V55.77a1.014,1.014,0,0,1-1.014,1.014h-1.17V54.6h-.027a5.221,5.221,0,0,1-4.316,2.346c-3.019,0-4.935-1.726-4.935-5.474V44.664a1.014,1.014,0,0,1,1.014-1.013h1.17v7.2c0,3,1.105,4.1,3.21,4.1,2.076,0,3.884-1.807,3.884-4.935V43.651Z"/><path class="a" d="M370.9,50.9H360.785a4.305,4.305,0,0,0,4.395,4.045,4.59,4.59,0,0,0,3.7-1.78l1.536,1.322a6.477,6.477,0,0,1-5.311,2.453,6.383,6.383,0,0,1-6.527-6.715c0-3.964,2.723-6.741,6.282-6.741,3.669,0,6.1,2.75,6.1,6.526C370.953,50.365,370.9,50.824,370.9,50.9ZM360.867,49.1H368.8c-.352-2.157-1.727-3.587-3.829-3.587A4.087,4.087,0,0,0,360.867,49.1Z"/><path class="a" d="M388.231,50.23c0,4.072-2.642,6.77-6.311,6.77a4.871,4.871,0,0,1-4.017-1.807h-.082v1.591h-3.37V37.949a1.013,1.013,0,0,1,1.013-1.013h2.52v8.171h.08a5.026,5.026,0,0,1,3.966-1.7C385.561,43.408,388.231,46.239,388.231,50.23Zm-3.587.028a3.4,3.4,0,0,0-3.371-3.695,3.47,3.47,0,0,0-3.452,3.695,3.411,3.411,0,0,0,3.452,3.587A3.317,3.317,0,0,0,384.644,50.258Z"/><path class="a" d="M391.043,39.6a2.2,2.2,0,1,1,2.185,2.158A2.187,2.187,0,0,1,391.043,39.6Zm1.418,4.018h2.52V55.77a1.014,1.014,0,0,1-1.014,1.014h-2.519V44.636A1.013,1.013,0,0,1,392.461,43.623Z"/><path class="a" d="M406.719,43.434v3.831c-.349-.028-.726-.028-.917-.028a3.184,3.184,0,0,0-3.37,3.425V55.77a1.014,1.014,0,0,1-1.014,1.014H398.9V44.636a1.014,1.014,0,0,1,1.014-1.013h2.52v1.942h.028a4.838,4.838,0,0,1,3.989-2.157A.771.771,0,0,1,406.719,43.434Z"/><path class="a" d="M422.443,36.936V55.77a1.014,1.014,0,0,1-1.014,1.014h-2.357V55.193h-.053A4.927,4.927,0,0,1,414.973,57c-3.64,0-6.31-2.7-6.31-6.77,0-3.991,2.67-6.822,6.2-6.822a5.02,5.02,0,0,1,3.964,1.7h.081V37.949a1.013,1.013,0,0,1,1.014-1.013ZM419.1,50.258a3.49,3.49,0,0,0-3.478-3.695,3.4,3.4,0,0,0-3.37,3.695,3.331,3.331,0,0,0,3.37,3.587A3.415,3.415,0,0,0,419.1,50.258Z"/><path class="b" d="M420.5,18.2l1.156,4.433-4.147,1.74Z"/><path class="b" d="M431.371,19.161l-.06.072-8.39,3.516-1.442-5.506Z"/><path class="b" d="M436.364,41.257a3.487,3.487,0,0,1-.727,2.121l-4.314,5.565-.012-13.252,1.013-1.3,4.028-5.2Z"/><path class="b" d="M431.311,19.233l-6.924,8.938a.166.166,0,0,1-.036.048l-1.43-5.47-1.442-5.506,9.892,1.918Z"/><path class="b" d="M436.245,27.4l-5.6,7.222-5.232-4.684a.756.756,0,0,1-.084-1.025l7.008-9.034Z"/><path class="b" d="M432.336,19.876l3.909,7.521-5.6,7.222-5.232-4.684a.756.756,0,0,1-.084-1.025Z"/><path class="b" d="M433.134,18.84l3.79-4.9L436.448,25.2Z"/><path class="b" d="M446.184,14.573l-8.556,11.036.5-11.882a.777.777,0,0,1,.3-.572A.807.807,0,0,1,438.89,13c.048,0,.1.012.144.012Z"/><path class="b" d="M446.184,14.573l-8.556,11.036.5-11.882a.777.777,0,0,1,.3-.572A.807.807,0,0,1,438.89,13c.048,0,.1.012.144.012Z"/></g></svg>