<svg xmlns="http://www.w3.org/2000/svg" width="38.244" height="47.94" viewBox="0 0 38.244 47.94"><defs><style>.a{fill:#fff;opacity:0.8;}</style></defs><g transform="translate(-940.878 -4003)"><path class="a" d="M944.868,4009.93l1.541,5.913-5.532,2.321Z"/><path class="a" d="M959.365,4011.218l-.08.1L948.094,4016l-1.923-7.344Z"/><path class="a" d="M966.024,4040.688a4.648,4.648,0,0,1-.969,2.829l-5.754,7.423-.016-17.675,1.351-1.733,5.373-6.93Z"/><path class="a" d="M959.285,4011.313l-9.236,11.922a.189.189,0,0,1-.047.063l-1.908-7.3-1.923-7.343,13.194,2.559Z"/><path class="a" d="M965.866,4022.2l-7.471,9.632-6.978-6.247a1.008,1.008,0,0,1-.112-1.367l9.347-12.048Z"/><path class="a" d="M960.652,4012.172l5.214,10.03-7.471,9.632-6.978-6.247a1.008,1.008,0,0,1-.112-1.367Z"/><path class="a" d="M961.716,4010.789l5.055-6.533-.636,15.021Z"/><path class="a" d="M979.122,4005.1l-11.412,14.719.667-15.847a1.034,1.034,0,0,1,.4-.763,1.072,1.072,0,0,1,.619-.207c.064,0,.127.016.191.016Z"/><path class="a" d="M979.122,4005.1l-11.412,14.719.667-15.847a1.034,1.034,0,0,1,.4-.763,1.072,1.072,0,0,1,.619-.207c.064,0,.127.016.191.016Z"/></g></svg>