<svg xmlns="http://www.w3.org/2000/svg" width="24.61" height="20" viewBox="0 0 24.61 20"><defs><style>.a{fill:#f4f7fc;}</style></defs><path class="a" d="M967.506,4144.368a10.157,10.157,0,0,1-2.9.795,5.069,5.069,0,0,0,2.22-2.794,10.092,10.092,0,0,1-3.206,1.225,5.054,5.054,0,0,0-8.6,4.606,14.337,14.337,0,0,1-10.407-5.276,5.056,5.056,0,0,0,1.563,6.741,5.012,5.012,0,0,1-2.287-.632c0,.022,0,.043,0,.064a5.053,5.053,0,0,0,4.05,4.951,5.041,5.041,0,0,1-2.28.086,5.055,5.055,0,0,0,4.717,3.507,10.194,10.194,0,0,1-7.475,2.09,14.358,14.358,0,0,0,22.1-12.1c0-.219-.005-.436-.015-.653A10.266,10.266,0,0,0,967.506,4144.368Z" transform="translate(-942.896 -4142)"/></svg>